PathFileType	4	(X/Y/Z)	W14_1_OpenSim.trc																																																																																																																						
DataRate	CameraRate	NumFrames	NumMarkers	Units	OrigDataRate	OrigDataStartFrame	OrigNumFrames																																																																																																																		
100	100	9	40	mm	100	1876	3000																																																																																																																		
Frame#	Time	R.ASIS			R.PSIS			S2			L.PSIS			L.ASIS			R.TH1			R.TH2			R.TH3			R.MKnee			R.Knee			R.SH1			R.SH2			R.SH3			R.SH4			R.Ankle			R.MAnkle			R.Heel			R.MT5			R.MT1			L.TH1			L.TH2			L.TH3			L.TH4			L.MKnee			L.Knee			L.SH1			L.SH2			L.SH3			L.Ankle			L.MAnkle			L.Heel			L.MT5			L.MT1			R.Acr			L.Acr			C7			T10			Clav			Sternum			R.Back		
		X1	Y1	Z1	X2	Y2	Z2	X3	Y3	Z3	X4	Y4	Z4	X5	Y5	Z5	X6	Y6	Z6	X7	Y7	Z7	X8	Y8	Z8	X9	Y9	Z9	X10	Y10	Z10	X11	Y11	Z11	X12	Y12	Z12	X13	Y13	Z13	X14	Y14	Z14	X15	Y15	Z15	X16	Y16	Z16	X17	Y17	Z17	X18	Y18	Z18	X19	Y19	Z19	X20	Y20	Z20	X21	Y21	Z21	X22	Y22	Z22	X23	Y23	Z23	X24	Y24	Z24	X25	Y25	Z25	X26	Y26	Z26	X27	Y27	Z27	X28	Y28	Z28	X29	Y29	Z29	X30	Y30	Z30	X31	Y31	Z31	X32	Y32	Z32	X33	Y33	Z33	X34	Y34	Z34	X35	Y35	Z35	X36	Y36	Z36	X37	Y37	Z37	X38	Y38	Z38	X39	Y39	Z39	X40	Y40	Z40
1876	18.75	1007.6492	1048.6232	-384.0698	811.7048	1056.2438	-472.9464	803.9939	1050.3174	-517.9326	803.0382	1054.8894	-567.5927	975.5728	1044.8579	-678.4159	945.1571	717.2593	-370.4573	866.0079	726.6863	-352.3632	850.6118	618.5844	-369.9418	845.7325	497.8189	-502.0993	849.9929	498.7093	-385.2465	819.3644	332.6885	-386.9584	795.4906	224.9701	-409.5065	739.2644	349.4883	-372.4443	719.2377	238.3684	-387.5571	698.1389	80.2875	-406.3511	737.1207	95.0057	-499.9243	638.0558	41.9876	-464.6226	809.7206	36.7715	-374.5308	859.0136	38.7371	-462.3265	1046.5352	779.6875	-700.3527	1082.1149	677.1456	-696.408	969.5266	748.9084	-710.4933	1007.8834	646.579	-699.853	1120.9207	521.1949	-582.4464	1111.0194	532.9152	-693.3994	1144.8015	408.3471	-720.5489	1064.7656	392.9697	-717.5146	1087.9135	286.2808	-717.1923	1191.3352	97.1507	-731.9042	1219.5684	110.4312	-634.8303	1140.0737	40.0863	-677.7976	1307.3629	77.9441	-752.2604	1343.5728	97.335	-653.0041	987.9368	1451.0714	-380.6813	905.686	1432.7755	-690.4219	892.5166	1485.0844	-528.3852	847.5531	1161.0507	-515.3899	1022.8182	1384.5201	-552.2698	1046.7616	1239.3552	-539.2107	830.4357	1396.2846	-423.5968
1877	18.76	1007.6124	1045.6849	-385.133	811.9976	1053.7314	-474.1339	804.3457	1047.8195	-519.1271	803.4144	1052.3522	-568.7936	975.8447	1041.677	-679.439	942.1114	714.8115	-371.2729	863.1389	725.2094	-352.8757	846.3826	617.2897	-370.5746	839.4869	496.6937	-502.7868	843.8199	497.3329	-385.9611	810.3136	331.7434	-387.4051	784.488	224.4186	-410.0103	730.3954	349.9912	-373.0056	708.5488	239.1745	-387.9945	684.7206	81.1493	-406.4437	723.8248	95.5337	-500.1177	624.2682	43.2752	-464.6549	795.8156	36.7461	-374.4663	845.1068	38.749	-462.2858	1045.0078	774.901	-701.017	1079.6373	671.9647	-696.5757	967.7294	744.7563	-711.4738	1005.0099	642.1288	-700.3152	1116.786	516.6826	-582.1918	1107.9969	528.564	-693.0062	1146.2634	406.1814	-720.9248	1067.0774	386.5954	-716.5596	1095.7644	281.1826	-715.868	1210.5142	96.459	-730.4418	1238.4337	112.3752	-633.9954	1163.0085	36.7421	-675.8311	1327.4917	84.539	-752.0341	1363.1543	107.038	-653.264	988.2129	1448.4916	-382.3905	905.5182	1429.5706	-691.9972	892.5252	1482.2693	-529.9274	847.4558	1158.2805	-516.4765	1022.8339	1381.6326	-553.7588	1046.7245	1236.452	-540.3889	830.5316	1393.7229	-424.7897
1878	18.77	1007.6144	1042.7231	-386.307	812.3252	1051.0332	-475.5626	804.7378	1045.1288	-520.5571	803.8425	1049.6314	-570.2349	976.255	1038.5212	-680.6138	939.3958	712.3192	-372.1749	860.5824	723.6373	-353.5882	842.5755	615.898	-371.3623	833.9421	495.4293	-503.5841	838.2298	495.8629	-386.7845	801.6859	330.7911	-387.9413	773.7725	223.9222	-410.5348	722.0182	350.5652	-373.61	698.2043	240.1155	-388.4336	671.4268	82.1905	-406.471	710.6408	96.2797	-500.225	610.5068	44.9001	-464.6265	781.9226	36.7357	-374.3912	831.2471	38.7861	-462.2657	1044.1683	770.4241	-701.8461	1078.026	667.1517	-696.8426	966.6455	740.7856	-712.6224	1003.051	637.9296	-700.8461	1113.4344	512.6138	-581.9053	1105.5931	524.473	-692.613	1147.1508	403.8359	-721.0699	1068.8552	380.7427	-715.1205	1102.1886	276.6066	-713.8967	1226.2688	95.9331	-728.2459	1254.3221	114.5443	-632.5299	1182.4458	34.2959	-672.699	1343.751	90.2767	-751.4437	1379.2313	115.9327	-653.3832	988.5455	1445.9174	-384.2123	905.4866	1426.3579	-693.6876	892.5921	1479.4255	-531.5844	847.4562	1155.458	-517.7079	1022.9349	1378.7356	-555.3503	1046.7889	1233.5281	-541.6835	830.7198	1391.1071	-426.0943
1879	18.78	1007.6517	1039.7661	-387.5775	812.6832	1048.1893	-477.2467	805.1549	1042.2915	-522.2358	804.3156	1046.781	-571.9292	976.799	1035.4578	-681.9585	937.0232	709.8193	-373.2039	858.3513	721.9873	-354.5478	839.2263	614.4169	-372.3334	829.1759	494.0022	-504.4987	833.2804	494.312	-387.7251	793.5141	329.8505	-388.5687	763.3813	223.506	-411.047	714.1771	351.2439	-374.2701	688.2331	241.2378	-388.8748	658.2787	83.4545	-406.4165	697.6067	97.2833	-500.2206	596.7924	46.9381	-464.5251	768.0541	36.7373	-374.2965	817.4326	38.8287	-462.2697	1044.119	766.4298	-702.8101	1077.4327	662.9121	-697.1406	966.3889	737.1251	-713.8128	1002.1873	634.1382	-701.301	1111.2141	509.2227	-581.5605	1104.0405	520.8058	-692.1566	1147.7224	401.313	-720.8673	1070.2404	375.5501	-713.2274	1107.1394	272.5493	-711.362	1238.2383	95.263	-725.4192	1266.8511	116.419	-630.462	1197.7469	32.4465	-668.624	1355.8689	94.5186	-750.4851	1391.5491	123.1344	-653.3035	988.931	1443.3794	-386.1464	905.5774	1423.1755	-695.4915	892.7105	1476.5883	-533.3556	847.5761	1152.6193	-519.0826	1023.1191	1375.8586	-557.0529	1046.9541	1230.6152	-543.1111	830.9964	1388.4666	-427.5142
1880	18.79	1007.7401	1036.8423	-388.9359	813.0839	1045.257	-479.1811	805.5953	1039.3721	-524.1583	804.8458	1043.8756	-573.8696	977.4813	1032.5573	-683.4897	935.0273	707.3505	-374.3944	856.4713	720.2752	-355.7958	836.3888	612.8516	-373.5126	825.2601	492.398	-505.5381	829.045	492.6926	-388.7887	785.8356	328.9475	-389.283	753.356	223.2062	-411.5171	706.9215	352.0721	-375.0035	678.6672	242.6029	-389.3233	645.3063	84.9946	-406.2634	684.773	98.5879	-500.0828	583.1571	49.4796	-464.3409	754.2333	36.7412	-374.1687	803.6592	38.8498	-462.2953	1044.8763	763.0262	-703.8679	1077.8909	659.3745	-697.4078	966.9816	733.8666	-714.9181	1002.4774	630.8624	-701.5586	1110.3795	506.6809	-581.1448	1103.5033	517.6808	-691.5765	1148.2629	398.6564	-720.227	1071.4054	371.1492	-710.9689	1110.6603	269.0178	-708.4072	1246.2644	94.2488	-722.1216	1275.7886	117.5118	-627.8526	1208.447	30.9588	-663.9614	1363.7737	96.7917	-749.1434	1400.0306	127.8239	-652.8982	989.3547	1440.9099	-388.1915	905.7759	1420.0677	-697.4082	892.8747	1473.7985	-535.2416	847.8404	1149.8068	-520.5976	1023.3846	1373.0419	-558.8724	1047.2263	1227.7589	-544.6907	831.3492	1385.8309	-429.061
1881	18.8	1007.9149	1033.9841	-390.3837	813.5544	1042.3075	-481.3395	806.0702	1036.4487	-526.2993	805.4665	1041.0027	-576.0281	978.3175	1029.8938	-685.218	933.4664	704.9455	-375.7673	854.9863	718.5106	-357.3593	834.1398	611.2014	-374.9173	822.2667	490.6122	-506.7075	825.618	491.0143	-389.9725	778.7012	328.1153	-390.068	743.7445	223.0737	-411.9197	700.3142	353.1044	-375.8304	669.5515	244.2871	-389.7862	632.5543	86.8761	-405.9944	672.2041	100.2421	-499.7923	569.6528	52.633	-464.0667	740.4916	36.7299	-373.9932	789.9231	38.8177	-462.3346	1046.3756	760.2517	-704.9864	1079.3256	656.5827	-697.6191	968.3576	731.0619	-715.8506	1003.8521	628.1542	-701.5613	1111.024	505.0658	-580.6655	1104.0346	515.1571	-690.8444	1149.0109	395.9448	-719.1151	1072.5085	367.6337	-708.4968	1112.8814	266.0198	-705.2259	1250.4364	92.8391	-718.5583	1281.104	117.4621	-624.7994	1214.3447	29.7162	-659.145	1367.6392	96.854	-747.391	1404.8129	129.3893	-651.9904	989.7948	1438.5403	-390.3417	906.0646	1417.0858	-699.4387	893.08	1471.1049	-537.2425	848.2728	1147.0687	-522.2473	1023.728	1370.3369	-560.8129	1047.6178	1225.0182	-546.4404	831.7596	1383.2333	-430.752
1882	18.81	1008.2253	1031.2306	-391.9309	814.134	1039.4243	-483.6787	806.6006	1033.6106	-528.6161	806.2269	1038.2576	-578.3618	979.3316	1027.5419	-687.141	932.42	702.6299	-377.3293	853.9612	716.6948	-359.2437	832.5809	609.4581	-376.5537	820.2787	488.6473	-508.0048	823.1178	489.283	-391.263	772.1856	327.396	-390.8896	734.6126	223.1731	-412.2285	694.4399	354.4036	-376.7717	660.9554	246.3758	-390.2693	620.0887	89.1786	-405.5915	659.9872	102.2969	-499.3313	556.3619	56.529	-463.6974	726.8637	36.6828	-373.7586	776.2225	38.701	-462.3757	1048.4939	758.0859	-706.1579	1081.5725	654.5031	-697.7919	970.3863	728.7292	-716.5864	1006.1337	626.0157	-701.3242	1113.0281	504.3363	-580.1503	1105.5555	513.2335	-689.9835	1150.1029	393.2817	-717.5742	1073.6572	365.0375	-706.0161	1113.9968	263.557	-702.0494	1251.105	91.1213	-714.9683	1282.984	116.1217	-621.4454	1215.571	28.7331	-654.6165	1367.8911	94.7207	-745.2018	1406.2332	127.5714	-650.4118	990.2303	1436.3013	-392.5849	906.424	1414.2866	-701.586	893.3216	1468.5657	-539.3585	848.8923	1144.4589	-524.022	1024.1427	1367.8076	-562.878	1048.1398	1222.4633	-548.3753	832.2045	1380.7137	-432.6076
1883	18.82	1008.7249	1028.6306	-393.5937	814.8662	1036.7004	-486.1466	807.2093	1030.9562	-531.0574	807.1804	1035.7382	-580.8216	980.5462	1025.5717	-689.2393	931.9796	700.4236	-379.0763	853.4808	714.8209	-361.4292	831.8353	607.6061	-378.411	819.4003	486.5067	-509.4146	821.6847	487.5037	-392.6338	766.397	326.8406	-391.6907	726.0546	223.5758	-412.4101	689.4139	356.0346	-377.8449	652.9823	248.9573	-390.7734	608.006	91.995	-405.0367	648.2409	104.8004	-498.683	543.409	61.3236	-463.2302	713.3835	36.5858	-373.4602	762.5596	38.473	-462.4063	1051.076	756.4715	-707.4009	1084.4032	653.0474	-697.9741	972.9021	726.8669	-717.1677	1009.0729	624.4148	-700.9246	1116.054	504.3354	-579.6442	1107.8772	511.8636	-689.0728	1151.566	390.7836	-715.7266	1074.8995	363.3366	-703.7653	1114.239	261.6295	-699.1333	1248.844	89.2655	-711.6105	1281.8071	113.5935	-617.9876	1212.6038	28.1159	-650.7579	1365.1525	90.6421	-742.5817	1404.7649	122.5514	-648.0744	990.6468	1434.2286	-394.9053	906.8342	1411.7322	-703.8525	893.5942	1466.2498	-541.5884	849.7083	1142.0356	-525.9047	1024.6196	1365.5271	-565.0706	1048.7942	1220.1728	-550.5045	832.66	1378.3243	-434.6462
1884	18.83	1009.4591	1026.2457	-395.3914	815.787	1034.2339	-488.6891	807.9153	1028.5902	-533.5693	808.368	1033.542	-583.3605	981.9713	1024.0453	-691.4754	932.2421	698.3461	-380.9942	853.6431	712.8774	-363.8718	832.0389	605.6254	-380.4571	819.7633	484.1882	-510.9017	821.4745	485.6802	-394.0444	761.4831	326.5048	-392.4001	718.206	224.3521	-412.424	685.3901	358.056	-379.0559	645.7786	252.1124	-391.2907	596.4451	95.4262	-404.3172	637.1197	107.7933	-497.8319	530.9727	67.192	-462.6653	700.0856	36.443	-373.1003	748.9436	38.1168	-462.4154	1053.9546	755.3421	-708.7458	1087.5608	652.1102	-698.2357	975.7295	725.4706	-717.6907	1012.3889	623.3096	-700.4915	1119.6061	504.8317	-579.2047	1110.7562	510.9862	-688.2361	1153.3495	388.5724	-713.7617	1076.2406	362.472	-701.9973	1113.8535	260.2473	-696.7468	1244.3508	87.4476	-708.7405	1278.0807	110.2001	-614.6714	1206.2065	27.9848	-647.8373	1360.1346	85.0342	-739.6028	1400.9325	114.9268	-645.0273	991.0367	1432.3693	-397.2853	907.2772	1409.4883	-706.2375	893.894	1464.233	-543.9285	850.7122	1139.8645	-527.8677	1025.147	1363.5748	-567.3893	1049.5758	1218.2312	-552.8268	833.104	1376.1332	-436.8792
